<svg width="152" height="31" viewBox="0 0 152 31" fill="none" xmlns="http://www.w3.org/2000/svg">
<path d="M0.428 6.68C0.428 2.48667 2.944 0.389999 7.976 0.389999C9.744 0.389999 11.7613 0.786666 14.028 1.58L13.246 4.674C10.934 3.94867 9.10933 3.586 7.772 3.586C6.45733 3.56333 5.50533 3.77867 4.916 4.232C4.32667 4.68533 4.032 5.47867 4.032 6.612C4.032 7.38267 4.36067 8.04 5.018 8.584C5.67533 9.10533 6.786 9.57 8.35 9.978C10.73 10.6127 12.362 11.4287 13.246 12.426C14.13 13.4233 14.572 14.908 14.572 16.88C14.572 21.164 12.0107 23.306 6.888 23.306C5.188 23.306 3.046 22.9433 0.462 22.218L1.176 18.988C1.176 19.0107 1.52733 19.1127 2.23 19.294C4.42867 19.8607 6.12867 20.144 7.33 20.144C8.554 20.144 9.46067 19.838 10.05 19.226C10.662 18.614 10.968 17.8433 10.968 16.914C10.968 15.9847 10.7073 15.2707 10.186 14.772C9.68733 14.2733 8.758 13.8313 7.398 13.446C4.95 12.766 3.17067 11.9273 2.06 10.93C0.972 9.93267 0.428 8.516 0.428 6.68ZM21.406 11.1V23H17.904V0.321998H21.406V7.802C23.242 6.986 24.6813 6.578 25.724 6.578C27.6733 6.578 29.0447 7.14467 29.838 8.278C30.654 9.41133 31.062 11.066 31.062 13.242V23H27.56V13.174C27.56 12.222 27.3673 11.44 26.982 10.828C26.6193 10.1933 26.132 9.876 25.52 9.876C24.4093 9.876 23.038 10.284 21.406 11.1ZM44.56 23L44.492 21.81C42.6787 22.83 41.2053 23.34 40.072 23.34C38.236 23.34 36.8987 22.8187 36.06 21.776C35.2213 20.7107 34.802 19.022 34.802 16.71V6.85H38.304V16.506C38.304 18.8407 39.0633 20.008 40.582 20.008C41.7833 20.008 43.0753 19.5433 44.458 18.614V6.85H47.96V23H44.56ZM65.368 19.09L65.844 23.782C65.844 27.8167 63.0447 29.834 57.446 29.834C55.7913 29.834 53.7853 29.3693 51.428 28.44L52.278 25.346C54.522 26.2073 56.3807 26.638 57.854 26.638C59.3273 26.638 60.4267 26.4227 61.152 25.992C61.9 25.5613 62.274 24.836 62.274 23.816L61.934 21.334C61.39 21.7873 60.676 22.184 59.792 22.524C58.9307 22.8413 58.1033 23 57.31 23C55.2473 23 53.7287 22.3767 52.754 21.13C51.802 19.8607 51.326 17.7867 51.326 14.908C51.326 9.4 53.6153 6.646 58.194 6.646C59.5313 6.646 60.7553 6.99733 61.866 7.7L61.934 6.646H65.368V19.09ZM58.5 9.808C57.208 9.808 56.2787 10.216 55.712 11.032C55.1453 11.8253 54.862 13.0607 54.862 14.738C54.862 16.4153 55.0773 17.6847 55.508 18.546C55.9387 19.4073 56.7093 19.838 57.82 19.838C58.9307 19.838 60.2793 19.1807 61.866 17.866V10.726C60.9367 10.114 59.8147 9.808 58.5 9.808ZM82.368 19.09L82.844 23.782C82.844 27.8167 80.0447 29.834 74.446 29.834C72.7913 29.834 70.7853 29.3693 68.428 28.44L69.278 25.346C71.522 26.2073 73.3807 26.638 74.854 26.638C76.3273 26.638 77.4267 26.4227 78.152 25.992C78.9 25.5613 79.274 24.836 79.274 23.816L78.934 21.334C78.39 21.7873 77.676 22.184 76.792 22.524C75.9307 22.8413 75.1033 23 74.31 23C72.2473 23 70.7287 22.3767 69.754 21.13C68.802 19.8607 68.326 17.7867 68.326 14.908C68.326 9.4 70.6153 6.646 75.194 6.646C76.5313 6.646 77.7553 6.99733 78.866 7.7L78.934 6.646H82.368V19.09ZM75.5 9.808C74.208 9.808 73.2787 10.216 72.712 11.032C72.1453 11.8253 71.862 13.0607 71.862 14.738C71.862 16.4153 72.0773 17.6847 72.508 18.546C72.9387 19.4073 73.7093 19.838 74.82 19.838C75.9307 19.838 77.2793 19.1807 78.866 17.866V10.726C77.9367 10.114 76.8147 9.808 75.5 9.808ZM91.344 20.076C91.9787 20.076 92.6813 19.9287 93.452 19.634C94.2227 19.3393 94.8347 19.0107 95.288 18.648V16.268C93.928 16.1547 92.8173 16.098 91.956 16.098C90.0747 16.098 89.134 16.8007 89.134 18.206C89.134 19.4527 89.8707 20.076 91.344 20.076ZM90.8 23.374C87.1733 23.374 85.36 21.6513 85.36 18.206C85.36 16.37 85.938 15.0893 87.094 14.364C88.2727 13.616 89.8933 13.242 91.956 13.242C92.9307 13.242 94.0413 13.2987 95.288 13.412C95.288 12.052 95.0953 11.1227 94.71 10.624C94.3247 10.1253 93.656 9.876 92.704 9.876C91.752 9.876 90.6413 9.98933 89.372 10.216C88.1027 10.4427 87.128 10.6693 86.448 10.896L85.802 7.666C88.182 6.94067 90.5053 6.578 92.772 6.578C95.0387 6.578 96.6027 7.07667 97.464 8.074C98.348 9.07133 98.79 10.76 98.79 13.14V20.042L99.164 23.034L95.662 23.374L95.322 21.81C93.418 22.8527 91.9107 23.374 90.8 23.374ZM110.044 23.306C107.165 23.306 105.057 22.4107 103.72 20.62C102.405 18.8293 101.748 15.928 101.748 11.916C101.748 7.904 102.428 4.98 103.788 3.144C105.171 1.308 107.324 0.389999 110.248 0.389999C112.56 0.389999 114.645 0.707333 116.504 1.342L115.892 4.368C114.305 3.824 112.424 3.552 110.248 3.552C108.457 3.552 107.188 4.198 106.44 5.49C105.715 6.782 105.352 8.86733 105.352 11.746C105.352 14.6247 105.737 16.7327 106.508 18.07C107.301 19.3847 108.48 20.042 110.044 20.042C111.155 20.042 112.322 19.8947 113.546 19.6V14.33H110.384V11.202H116.946V22.15C114.793 22.9207 112.492 23.306 110.044 23.306ZM119.326 6.85H123.032L126.568 18.41H126.84L130.206 6.85H133.878L127.86 25.754C127.293 27.522 126.568 28.6553 125.684 29.154C124.823 29.6753 123.259 29.9587 120.992 30.004V26.876C122.08 26.8307 122.896 26.672 123.44 26.4C124.007 26.1507 124.381 25.72 124.562 25.108L124.936 23.918L119.326 6.85ZM139.114 6.85L139.216 7.768C140.077 6.97467 140.916 6.578 141.732 6.578C142.888 6.578 143.761 7.00867 144.35 7.87C145.529 7.00867 146.571 6.578 147.478 6.578C148.838 6.578 149.801 6.97467 150.368 7.768C150.957 8.56133 151.252 10.0347 151.252 12.188V23H147.784V13.684C147.784 11.5987 147.603 10.3973 147.24 10.08C147.059 9.89867 146.798 9.808 146.458 9.808C146.118 9.808 145.687 10.0347 145.166 10.488C145.279 11.0093 145.336 12.0747 145.336 13.684V17.458H141.902V13.684C141.902 11.6213 141.777 10.42 141.528 10.08C141.392 9.89867 141.154 9.808 140.814 9.808C140.497 9.808 140.009 10.0573 139.352 10.556V23H135.782V6.85H139.114Z" fill="#1E84FB"/>
</svg>
